<svg version="1.1" id="Layer_1" xmlns="http://www.w3.org/2000/svg" xmlns:xlink="http://www.w3.org/1999/xlink" x="0px" y="0px"
	 width="100%" viewBox="0 0 1024 1024" enable-background="new 0 0 1024 1024" xml:space="preserve">
<path fill="#000000" opacity="1.000000" stroke="none" 
	d="
M742.052307,801.066040 
	C713.858887,826.951355 683.378052,849.290466 651.958923,870.395264 
	C616.802490,894.010681 580.518921,915.728577 542.593750,934.629272 
	C534.547363,938.639404 526.254456,942.152588 518.168518,946.086548 
	C514.418823,947.910767 511.050385,947.870117 507.252167,946.076599 
	C474.983368,930.839172 443.686798,913.814331 413.222656,895.248047 
	C372.772186,870.595642 333.778015,843.873169 297.568146,813.249512 
	C261.729095,782.939453 230.022491,748.914917 205.346619,708.772705 
	C186.932938,678.817688 172.377991,647.201660 165.120834,612.525391 
	C161.295410,594.246704 158.975571,575.845703 158.984665,557.156799 
	C159.035721,452.338806 159.227158,347.520264 158.849976,242.703766 
	C158.812668,232.335236 162.473236,227.461975 171.561035,223.506836 
	C211.495850,206.126587 252.661469,192.526993 294.796112,181.725739 
	C313.623047,176.899429 332.575256,172.630707 351.777557,169.543274 
	C355.489594,168.946442 358.367798,167.335068 360.927612,164.249603 
	C384.773041,135.507446 413.134521,112.927177 449.054504,101.002434 
	C465.852783,95.425758 483.146515,92.744896 500.828064,91.428024 
	C527.820251,89.417740 553.919006,93.183662 579.244141,102.056984 
	C606.428406,111.581696 629.689575,127.492233 649.752869,148.091324 
	C654.168030,152.624435 658.691284,157.116089 662.568420,162.091507 
	C666.378723,166.981201 670.899109,169.548813 677.035889,170.566086 
	C722.930298,178.173889 767.425964,191.052826 811.237549,206.509964 
	C827.422058,212.220047 843.337769,218.500076 858.988770,225.564987 
	C865.402527,228.460236 867.272705,232.605179 867.185913,239.109406 
	C866.948059,256.936859 867.101990,274.769653 867.109558,292.600311 
	C867.147522,382.253876 867.778809,471.912781 866.971130,561.558716 
	C866.585449,604.358154 855.236694,644.849609 835.393433,683.056091 
	C811.866699,728.354858 779.827271,766.698425 742.052307,801.066040 
M783.329529,233.351059 
	C753.786072,223.655624 724.175171,214.222473 691.937927,208.880997 
	C712.979187,271.597137 710.082031,330.775696 673.453003,385.539307 
	C636.956604,440.104736 584.472046,468.344208 519.521851,471.915344 
	C468.145081,474.740234 422.444275,457.931335 384.764130,422.845917 
	C321.196808,363.655975 306.563843,291.653259 332.501282,210.252151 
	C330.590576,209.003052 328.965271,209.412781 327.336243,209.741898 
	C283.635468,218.570511 241.572510,232.639084 200.200729,249.045105 
	C194.521805,251.297073 193.012497,254.321350 193.023804,260.071564 
	C193.225830,362.736664 193.262604,465.402161 193.229813,568.067566 
	C193.227188,576.270813 194.198334,584.336914 195.631943,592.333191 
	C205.296753,646.241028 230.495468,692.652100 265.517883,733.944397 
	C291.161865,764.179321 320.845154,790.200745 352.847412,813.600464 
	C402.337128,849.787109 454.707062,881.173340 509.677551,908.271973 
	C511.979797,909.406921 513.980835,909.537781 516.280823,908.379517 
	C523.273499,904.857849 530.409058,901.613586 537.343384,897.983215 
	C596.554932,866.983765 652.327637,830.751221 704.337402,788.707397 
	C750.534973,751.362305 787.925598,707.155334 812.159241,652.487061 
	C823.718994,626.409424 832.189758,599.183716 832.385864,570.680237 
	C833.103577,466.352417 832.717834,362.017151 832.879028,257.684875 
	C832.885559,253.420380 831.255127,251.509232 827.519348,250.002991 
	C813.154846,244.211304 798.673767,238.742401 783.329529,233.351059 
M623.564941,222.893188 
	C620.747742,222.249283 618.756653,220.688690 617.965454,217.816040 
	C613.196655,200.502518 605.592102,184.480484 596.125610,169.266266 
	C592.943298,164.151703 593.374023,162.838745 598.693970,159.807053 
	C602.804932,157.464340 607.119385,155.478668 611.425476,153.292587 
	C593.381104,129.789551 506.532440,108.967178 486.246887,122.918655 
	C487.043823,124.657196 488.867035,124.853882 490.318085,125.527863 
	C501.415619,130.682541 511.620941,137.185104 520.923218,145.159607 
	C523.972290,147.773499 524.643188,150.073257 522.279053,153.648926 
	C515.004761,164.650848 509.157257,176.453400 503.755005,188.462982 
	C502.375824,191.529037 500.551727,193.160965 497.049469,193.360535 
	C479.640961,194.352600 462.859222,198.301392 446.776276,204.970154 
	C442.356476,206.802811 439.417908,206.329971 436.523224,202.385864 
	C430.111450,193.649536 423.990631,184.737640 418.317749,175.503799 
	C416.459351,172.478821 416.336334,169.739655 417.992981,166.602921 
	C423.026917,157.071640 429.739563,148.855606 437.347748,141.311966 
	C438.623688,140.046860 440.220703,139.035065 440.640625,136.922928 
	C437.941528,136.889481 435.829224,138.182587 433.694550,139.399307 
	C395.929718,160.924377 370.172913,192.330505 355.357544,233.175323 
	C351.314758,244.320984 350.626465,254.688385 355.563751,265.433441 
	C357.439331,269.515228 358.778046,273.878754 360.970306,277.770935 
	C363.627136,282.487946 363.136292,286.470001 360.928986,291.348419 
	C355.745758,302.804230 352.129395,314.593262 356.431763,327.479492 
	C374.311310,381.031219 409.998535,416.959564 463.084900,435.759094 
	C466.874115,437.100983 470.701447,438.795074 475.250000,438.253204 
	C471.696716,431.537384 471.718994,424.564117 471.726257,417.667023 
	C471.729980,414.130402 470.600098,411.711426 467.666931,409.733582 
	C458.745697,403.718109 451.528046,395.851898 444.514496,387.803101 
	C443.519470,386.661163 441.922577,385.612701 442.618866,383.557983 
	C444.886139,383.480469 445.821411,385.303375 446.965302,386.557953 
	C453.813904,394.069153 462.156677,399.446106 471.126740,404.020630 
	C476.125214,406.569702 481.254944,408.088409 486.940308,407.757507 
	C502.810699,406.833710 518.192383,403.503937 533.155151,398.285950 
	C536.839783,397.001007 539.600769,397.209412 542.765076,399.671082 
	C551.188782,406.224243 560.131775,412.009827 569.911499,416.424072 
	C575.808411,419.085693 575.975342,420.501617 571.157349,425.151489 
	C568.113159,428.089539 564.520996,430.499512 561.995667,434.321869 
	C575.258484,434.709320 616.645081,410.319275 621.304810,399.881592 
	C618.479553,399.498505 615.888672,402.554718 612.814026,400.651520 
	C612.814026,399.985596 612.637878,399.403137 612.843994,399.034210 
	C613.815918,397.294189 614.831421,395.571564 615.941589,393.916656 
	C624.745667,380.792603 630.970886,366.521362 635.085205,351.287933 
	C636.428162,346.315582 635.891235,342.397675 630.958679,339.342438 
	C627.302429,337.077728 623.383118,334.863434 620.832458,330.937897 
	C625.342896,332.474335 629.694580,334.301453 633.760498,336.628021 
	C636.885986,338.416473 639.297180,337.767029 641.954651,335.853149 
	C650.837097,329.455994 658.351440,321.763763 664.424866,312.656525 
	C665.145325,311.576202 665.785950,310.091522 667.398438,310.448853 
	C668.878845,310.776886 669.392090,312.089844 669.375000,313.549347 
	C669.352356,315.484100 670.090637,317.055481 671.528076,318.383301 
	C679.653809,299.199738 676.693115,239.656357 667.069275,231.103683 
	C664.494507,237.341858 664.113220,244.343231 659.969788,250.913345 
	C648.052185,241.070816 637.602234,230.193283 623.564941,222.893188 
z"/>
<path fill="#000000" opacity="1.000000" stroke="none" 
	d="
M562.683228,488.050171 
	C586.571838,498.152985 597.580078,516.558899 599.419556,541.431885 
	C600.223938,552.308411 600.012634,563.080322 596.976685,573.534851 
	C589.963867,597.683594 573.305542,611.461975 549.064270,616.285950 
	C530.828979,619.914856 512.283569,618.903992 493.833130,619.027832 
	C486.575836,619.076477 486.240021,619.323669 486.241791,626.626038 
	C486.245544,642.116455 486.270569,657.606934 486.286316,673.097351 
	C486.288177,674.915222 486.286560,676.733093 486.286560,678.225281 
	C484.524475,679.891907 482.775085,679.383484 481.170135,679.387451 
	C467.511932,679.421143 453.852203,679.293884 440.196228,679.470337 
	C436.457336,679.518677 434.944153,678.700806 434.951416,674.537109 
	C435.061005,611.909668 435.034729,549.281860 434.921295,486.654388 
	C434.913971,482.615356 436.445190,481.575775 440.215973,481.590240 
	C470.696838,481.707245 501.180695,481.458466 531.658203,481.801361 
	C542.133423,481.919220 552.427429,484.217041 562.683228,488.050171 
M486.212158,553.499878 
	C486.206177,558.830444 486.377899,564.169067 486.135254,569.488831 
	C485.956390,573.409729 487.434967,574.773682 491.337677,574.696228 
	C501.161987,574.501282 510.997803,574.830444 520.819641,574.581543 
	C535.321716,574.213989 550.370605,568.487366 548.813477,546.352783 
	C548.033630,535.266663 542.349792,527.342224 531.234253,525.431519 
	C517.703247,523.105591 503.997437,524.637451 490.367584,524.576782 
	C487.301270,524.563110 486.116058,526.442322 486.165527,529.512878 
	C486.288940,537.173462 486.206360,544.837402 486.212158,553.499878 
z"/>
<path fill="#000000" opacity="1.000000" stroke="none" 
	d="
M381.294037,808.736389 
	C358.427032,792.067261 335.850342,775.609741 315.773773,756.534241 
	C316.096741,754.397095 317.467865,754.289795 318.466187,753.932373 
	C361.242188,738.619446 404.603180,725.479736 449.451782,717.539612 
	C474.288177,713.142517 499.240845,709.666260 524.282227,706.854004 
	C535.992310,705.538879 547.834290,705.429810 559.606995,704.634155 
	C583.234192,703.037292 606.889526,703.628479 630.533020,703.716736 
	C660.661804,703.829224 690.750977,705.415588 720.841980,706.770996 
	C729.630554,707.166931 738.398926,708.022949 747.173706,708.703552 
	C748.813477,708.830750 750.506226,708.895874 752.384155,710.398193 
	C748.069702,717.618652 742.684875,723.968506 736.417053,729.594482 
	C735.240601,730.650574 733.551697,730.302124 732.065125,730.287354 
	C705.909851,730.027893 679.794067,731.429077 653.764954,733.527954 
	C591.040100,738.585938 529.657898,750.275879 470.787140,773.241272 
	C443.719727,783.800171 417.620422,796.296570 393.819519,813.161255 
	C391.369995,814.896851 389.460754,815.088684 387.180481,813.144226 
	C385.409821,811.634399 383.457275,810.337830 381.294037,808.736389 
z"/>
<path fill="#000000" opacity="1.000000" stroke="none" 
	d="
M574.660889,853.755615 
	C556.577942,864.466064 538.636902,874.665161 520.136780,883.876892 
	C514.999390,886.434937 510.754333,886.143127 505.657623,883.439331 
	C481.812653,870.789307 458.169983,857.808228 435.320618,843.417969 
	C429.580688,839.802979 429.568512,839.132385 435.093750,834.776489 
	C460.917480,814.417786 489.535522,798.846069 519.584167,785.817200 
	C557.319580,769.455505 596.750000,758.765015 637.219177,751.910217 
	C657.350769,748.500366 677.638245,746.082092 698.022888,744.583557 
	C706.408813,743.967102 714.772339,743.046326 723.313843,742.248230 
	C723.335693,745.232605 721.464050,746.082214 720.247559,747.263611 
	C690.119812,776.520325 656.229492,800.955994 621.450134,824.246948 
	C606.225159,834.442688 590.763428,844.264465 574.660889,853.755615 
z"/>
<path fill="#000000" opacity="1.000000" stroke="none" 
	d="
M397.349731,570.168823 
	C397.356415,580.808533 397.160248,590.976135 397.467682,601.128479 
	C397.592865,605.262634 396.083191,606.169800 392.303131,606.146729 
	C370.315369,606.012451 348.326355,606.082947 326.337769,606.080200 
	C319.042664,606.079285 319.018250,606.073853 319.016174,613.166992 
	C319.010345,633.156677 318.914307,653.147583 319.118134,673.135254 
	C319.165161,677.745667 318.025146,679.604004 313.019348,679.505371 
	C297.886993,679.207153 282.744995,679.397644 267.848053,679.397644 
	C266.134918,677.546997 266.683167,675.622742 266.682251,673.868530 
	C266.649261,611.899902 266.710724,549.931152 266.540863,487.963013 
	C266.526917,482.871735 268.014740,481.509552 273.018829,481.529877 
	C317.162384,481.709381 361.307159,481.688232 405.451050,481.554504 
	C409.916107,481.540955 411.584991,482.710083 411.450470,487.420227 
	C411.132019,498.572205 411.196075,509.742401 411.420837,520.898865 
	C411.505005,525.076660 410.029938,526.307800 405.945374,526.285645 
	C379.459595,526.142212 352.972656,526.206848 326.486115,526.215454 
	C318.353729,526.218140 318.361877,526.235535 318.376953,534.432068 
	C318.391388,542.261414 318.586121,550.097717 318.312836,557.917419 
	C318.156647,562.386292 319.963501,563.695251 324.181519,563.672241 
	C347.002625,563.547852 369.824677,563.608704 392.646423,563.605713 
	C393.947266,563.605591 395.248138,563.605713 396.410248,563.605713 
	C397.862671,565.698608 397.141754,567.759155 397.349731,570.168823 
z"/>
<path fill="#000000" opacity="1.000000" stroke="none" 
	d="
M740.000549,526.225830 
	C734.168274,526.228882 728.835449,526.271790 723.503540,526.219482 
	C720.604675,526.191040 719.149963,527.443176 719.245300,530.409180 
	C719.293457,531.906921 719.223206,533.408203 719.223755,534.907837 
	C719.241150,581.067871 719.193970,627.228149 719.380798,673.387512 
	C719.399902,678.104797 718.349243,679.710144 713.344299,679.547424 
	C701.025574,679.146851 688.685425,679.406799 676.353882,679.396240 
	C668.658813,679.389648 668.649536,679.385681 668.649231,671.900391 
	C668.647400,625.740295 668.651855,579.580200 668.649353,533.420105 
	C668.648926,526.224915 668.637573,526.220520 661.519836,526.220947 
	C646.855286,526.221802 632.190002,526.145569 617.526794,526.289368 
	C613.831543,526.325562 612.283325,525.631531 612.435486,521.315369 
	C612.834412,509.997925 612.561340,498.657257 612.593750,487.325928 
	C612.598450,485.696014 612.138733,484.007294 613.187256,482.038361 
	C666.567871,482.038361 720.127747,482.038361 773.752441,482.038361 
	C775.118164,484.434662 774.286438,486.973724 774.308411,489.396545 
	C774.404907,500.060852 774.248901,510.728394 774.432739,521.390442 
	C774.496826,525.106079 773.151184,526.328308 769.495178,526.262146 
	C759.833191,526.087219 750.165649,526.217346 740.000549,526.225830 
z"/>
<path fill="#000000" opacity="1.000000" stroke="none" 
	d="
M528.800415,228.211777 
	C531.463318,231.430756 534.472778,234.098114 536.155701,237.434631 
	C539.113770,243.299332 544.035278,244.567276 549.718750,244.603439 
	C564.563660,244.697922 579.116577,247.128372 593.687317,249.634430 
	C599.467407,250.628555 602.621277,253.394821 604.193359,259.162903 
	C609.237000,277.667664 610.353516,296.465363 609.260254,315.477478 
	C609.043823,319.241333 607.463806,322.230316 604.117676,324.617889 
	C592.155212,333.153351 579.703552,340.849579 566.383911,347.030487 
	C562.097778,349.019501 559.553833,351.732117 558.162659,356.241425 
	C555.214111,365.798523 551.200745,374.950287 546.388123,383.732635 
	C545.405701,385.525391 544.756592,387.650055 541.641113,388.797363 
	C543.852295,383.210083 545.749878,378.340576 547.705078,373.494324 
	C550.082336,367.601837 551.385315,361.428070 552.502808,355.212982 
	C553.217773,351.236420 552.289062,348.008514 549.198547,344.894653 
	C537.468933,333.076660 526.146423,320.855347 514.464355,308.988983 
	C511.383392,305.859436 510.919250,302.962524 512.798096,299.186646 
	C520.003296,284.706726 524.831177,269.232666 531.357544,254.480133 
	C534.448914,247.492386 533.146179,241.600494 529.315430,235.711136 
	C525.410767,229.708069 521.523682,223.685242 516.250671,218.724564 
	C515.454041,217.975128 514.347046,217.282562 514.997620,215.013550 
	C520.585999,218.503143 524.059143,223.811356 528.800415,228.211777 
z"/>
<path fill="#000000" opacity="1.000000" stroke="none" 
	d="
M380.023407,346.773926 
	C372.513733,329.282196 368.500732,311.450775 368.587585,292.718414 
	C368.604736,289.012878 369.901917,286.465393 372.788361,284.250061 
	C382.358765,276.904663 392.588196,270.742798 404.002106,266.760986 
	C409.895081,264.705170 415.797302,262.908569 417.638489,256.220154 
	C419.027435,256.231018 419.374237,256.853241 419.271790,257.515045 
	C418.160034,264.697845 421.540741,270.410309 425.260773,276.012482 
	C432.080994,286.283386 440.097961,295.656647 447.417175,305.537720 
	C453.600342,313.885132 461.352173,314.564331 470.340454,313.252563 
	C478.289703,312.092499 486.273987,311.172272 494.575439,310.103333 
	C493.514709,313.126129 491.067261,312.685760 489.369843,313.099976 
	C481.311005,315.066467 473.181549,316.744629 465.072510,318.503906 
	C459.033783,319.814087 454.663116,322.855255 451.938782,328.774689 
	C446.232574,341.173279 440.993866,353.756683 436.124969,366.491974 
	C434.706299,370.202698 432.674377,372.035278 428.702881,371.276459 
	C414.757538,368.612091 401.365570,364.393860 388.771027,357.674988 
	C384.272980,355.275360 382.076050,351.421112 380.023407,346.773926 
z"/>
</svg>